<svg width="21" height="132" viewBox="0 0 21 132" fill="none" xmlns="http://www.w3.org/2000/svg">
<path d="M10.909 3.79603C10.909 3.19803 11.013 2.66936 11.221 2.21003C11.429 1.75936 11.7194 1.40403 12.092 1.14403C12.4647 0.884027 12.8807 0.74536 13.34 0.728027L13.34 1.69003C12.898 1.73336 12.508 1.92836 12.17 2.27503C11.8407 2.62169 11.676 3.12869 11.676 3.79603C11.676 4.41136 11.832 4.89669 12.144 5.25203C12.4647 5.61603 12.8677 5.79803 13.353 5.79803C13.743 5.79803 14.055 5.69836 14.289 5.49903C14.5317 5.29969 14.7094 5.05269 14.822 4.75803C14.9434 4.46336 15.0734 4.05603 15.212 3.53603C15.3767 2.92936 15.537 2.44836 15.693 2.09303C15.849 1.73769 16.0917 1.43436 16.421 1.18303C16.7504 0.931694 17.1967 0.806027 17.76 0.806027C18.228 0.806027 18.644 0.927361 19.008 1.17003C19.3807 1.41269 19.671 1.75503 19.879 2.19703C20.087 2.63903 20.191 3.14603 20.191 3.71803C20.191 4.55869 19.983 5.23469 19.567 5.74603C19.1597 6.26603 18.631 6.56503 17.981 6.64303L17.981 5.65503C18.3537 5.59436 18.683 5.39069 18.969 5.04403C19.2637 4.69736 19.411 4.22936 19.411 3.64003C19.411 3.09403 19.2637 2.63903 18.969 2.27503C18.683 1.91103 18.2887 1.72903 17.786 1.72903C17.4047 1.72903 17.097 1.82869 16.863 2.02803C16.629 2.22736 16.4514 2.47436 16.33 2.76903C16.2087 3.07236 16.0787 3.47969 15.94 3.99103C15.7754 4.58036 15.6107 5.05703 15.446 5.42103C15.29 5.78503 15.0474 6.09269 14.718 6.34403C14.3887 6.59536 13.9467 6.72103 13.392 6.72103C12.9674 6.72103 12.5644 6.60836 12.183 6.38303C11.8017 6.15769 11.494 5.82403 11.26 5.38203C11.026 4.94003 10.909 4.41136 10.909 3.79603Z" fill="white"/>
<path d="M15.55 8.06348C16.4427 8.06348 17.24 8.25848 17.942 8.64848C18.6527 9.03848 19.203 9.57148 19.593 10.2475C19.9917 10.9235 20.191 11.6775 20.191 12.5095C20.191 13.5235 19.9484 14.3901 19.463 15.1095C18.9864 15.8375 18.3104 16.3661 17.435 16.6955L17.435 15.6295C18.0504 15.3695 18.5314 14.9708 18.878 14.4335C19.2247 13.9048 19.398 13.2635 19.398 12.5095C19.398 11.8421 19.242 11.2398 18.93 10.7025C18.618 10.1738 18.1674 9.75781 17.578 9.45448C16.9974 9.15115 16.3214 8.99948 15.55 8.99948C14.7787 8.99948 14.1027 9.15115 13.522 9.45448C12.9414 9.75781 12.495 10.1738 12.183 10.7025C11.871 11.2398 11.715 11.8421 11.715 12.5095C11.715 13.2635 11.884 13.9048 12.222 14.4335C12.5687 14.9708 13.0454 15.3695 13.652 15.6295L13.652 16.6955C12.7854 16.3661 12.1137 15.8375 11.637 15.1095C11.1604 14.3815 10.922 13.5148 10.922 12.5095C10.922 11.6775 11.117 10.9235 11.507 10.2475C11.9057 9.57148 12.456 9.03848 13.158 8.64848C13.86 8.25848 14.6574 8.06348 15.55 8.06348Z" fill="white"/>
<path d="M11 23.3448L14.796 21.0958L14.796 19.4188L11 19.4188L11 18.5088L20.087 18.5088L20.087 21.2388C20.087 22.2528 19.8444 23.0198 19.359 23.5398C18.8737 24.0684 18.2367 24.3328 17.448 24.3328C16.7894 24.3328 16.226 24.1421 15.758 23.7608C15.2987 23.3881 14.9997 22.8334 14.861 22.0968L11 24.4368L11 23.3448ZM15.537 19.4188L15.537 21.2518C15.537 21.9624 15.7104 22.4954 16.057 22.8508C16.4037 23.2148 16.8674 23.3968 17.448 23.3968C18.046 23.3968 18.5054 23.2234 18.826 22.8768C19.1554 22.5301 19.32 21.9841 19.32 21.2388L19.32 19.4188L15.537 19.4188Z" fill="white"/>
<path d="M10.909 30.2207C10.909 29.38 11.104 28.6173 11.494 27.9327C11.8927 27.248 12.443 26.7063 13.145 26.3077C13.8557 25.9177 14.6574 25.7227 15.55 25.7227C16.4427 25.7227 17.24 25.9177 17.942 26.3077C18.6527 26.7063 19.203 27.248 19.593 27.9327C19.9917 28.6173 20.191 29.38 20.191 30.2207C20.191 31.07 19.9917 31.837 19.593 32.5217C19.203 33.2063 18.6527 33.7437 17.942 34.1337C17.24 34.5237 16.4427 34.7187 15.55 34.7187C14.6574 34.7187 13.8557 34.5237 13.145 34.1337C12.443 33.7437 11.8927 33.2063 11.494 32.5217C11.104 31.837 10.909 31.07 10.909 30.2207ZM11.702 30.2207C11.702 30.8967 11.858 31.5033 12.17 32.0407C12.482 32.578 12.9284 33.0027 13.509 33.3147C14.0984 33.6267 14.7787 33.7827 15.55 33.7827C16.3214 33.7827 16.9974 33.6267 17.578 33.3147C18.1587 33.0027 18.605 32.578 18.917 32.0407C19.229 31.5033 19.385 30.8967 19.385 30.2207C19.385 29.5447 19.229 28.938 18.917 28.4007C18.605 27.8633 18.1587 27.4387 17.578 27.1267C16.9974 26.8147 16.3214 26.6587 15.55 26.6587C14.7787 26.6587 14.0984 26.8147 13.509 27.1267C12.9284 27.4387 12.482 27.8633 12.17 28.4007C11.858 28.938 11.702 29.5447 11.702 30.2207Z" fill="white"/>
<path d="M11.741 37.2938L11.741 40.5568L11 40.5568L11 36.3838L20.087 36.3838L20.087 37.2938L11.741 37.2938Z" fill="white"/>
<path d="M11.741 42.7655L11.741 46.0285L11 46.0285L11 41.8555L20.087 41.8555L20.087 42.7655L11.741 42.7655Z" fill="white"/>
<path d="M20.087 50.0181C20.087 51.0235 19.905 51.8858 19.541 52.6051C19.177 53.3245 18.6527 53.8748 17.968 54.2561C17.2834 54.6375 16.4687 54.8281 15.524 54.8281C14.588 54.8281 13.7777 54.6375 13.093 54.2561C12.417 53.8748 11.897 53.3245 11.533 52.6051C11.1777 51.8858 11 51.0235 11 50.0181L11 47.3271L20.087 47.3271L20.087 50.0181ZM11.754 50.0181C11.754 51.2835 12.0834 52.2455 12.742 52.9041C13.4094 53.5715 14.3367 53.9051 15.524 53.9051C16.72 53.9051 17.6517 53.5715 18.319 52.9041C18.995 52.2455 19.333 51.2835 19.333 50.0181L19.333 48.2371L11.754 48.2371L11.754 50.0181Z" fill="white"/>
<path d="M10.909 60.5878C10.909 59.7472 11.104 58.9845 11.494 58.2998C11.8927 57.6152 12.443 57.0735 13.145 56.6748C13.8557 56.2848 14.6574 56.0898 15.55 56.0898C16.4427 56.0898 17.24 56.2848 17.942 56.6748C18.6527 57.0735 19.203 57.6152 19.593 58.2998C19.9917 58.9845 20.191 59.7472 20.191 60.5878C20.191 61.4372 19.9917 62.2042 19.593 62.8888C19.203 63.5735 18.6527 64.1109 17.942 64.5009C17.24 64.8909 16.4427 65.0859 15.55 65.0859C14.6574 65.0859 13.8557 64.8909 13.145 64.5009C12.443 64.1109 11.8927 63.5735 11.494 62.8888C11.104 62.2042 10.909 61.4372 10.909 60.5878ZM11.702 60.5878C11.702 61.2638 11.858 61.8705 12.17 62.4078C12.482 62.9452 12.9284 63.3698 13.509 63.6818C14.0984 63.9938 14.7787 64.1498 15.55 64.1498C16.3214 64.1498 16.9974 63.9938 17.578 63.6818C18.1587 63.3698 18.605 62.9452 18.917 62.4078C19.229 61.8705 19.385 61.2638 19.385 60.5878C19.385 59.9118 19.229 59.3052 18.917 58.7678C18.605 58.2305 18.1587 57.8058 17.578 57.4938C16.9974 57.1818 16.3214 57.0258 15.55 57.0258C14.7787 57.0258 14.0984 57.1818 13.509 57.4938C12.9284 57.8058 12.482 58.2305 12.17 58.7678C11.858 59.3052 11.702 59.9118 11.702 60.5878Z" fill="white"/>
<path d="M20.087 77.775L11 75.201L11 74.187L18.748 71.899L11 69.559L10.987 68.571L20.087 66.049L20.087 67.024L12.118 69.104L20.087 71.431L20.087 72.445L12.118 74.707L20.087 76.8L20.087 77.775Z" fill="white"/>
<path d="M11 86.018L11 85.108L18.644 80.077L11 80.077L11 79.167L20.087 79.167L20.087 80.077L12.456 85.108L20.087 85.108L20.087 86.018L11 86.018Z" fill="white"/>
<rect width="1" height="132" fill="#425771"/>
</svg>
